<svg id="Слой_1" data-name="Слой 1" xmlns="http://www.w3.org/2000/svg" viewBox="0 0 52.08 35.42"><defs><style>.cls-1{fill:#fff}</style></defs><path class="cls-1" d="M2.45 26s-.11 0-.29.18a.18.18 0 0 1 .18-.18c-.18-.11-.18.18-.32 0s-.18 0-.18.18c-.15-.29-.47-.18-.58-.18v-.11a.68.68 0 0 1-.32.11c-.18-.11-.18-.11-.18-.25-.15 0-.15.14-.33.14s.18-.47.18-.65c-.18.18-.18-.14-.32-.14a1.93 1.93 0 0 0-.29-.66c.29-.76.94-.58 1.37-1.08h.21c.11-.33.58-.47 1.08-.65 3.06-1.66 6.16-3.38 9.22-5.22a2.8 2.8 0 0 1-1.08 0c-.65.25-1.23 0-1.73.25-.25-.25-.57.22-.9 0v-.11c-.18.33-.29.11-.65.11v-.11c-.21.11-.72-.14-.86 0a1.62 1.62 0 0 0-1.26-.32v-.11c-.9-.14-2-2.62-.32-2.62h.64v.1c0 .15-.32.15-.43.33v.14a.49.49 0 0 0-.47.51c2 .9 5.12.1 7.71-.18 0 0 0 .18.1.18a2.85 2.85 0 0 1 1.73-.18c.18 0 0-.15 0-.15.29 0 1.08.15 1.08-.5.18 0 0-.15.18-.15v.15a.15.15 0 0 0 .15-.15 9.21 9.21 0 0 0 1.08 1.73c0 .15-.15 0-.15.15.33 0 .15.28.47.5-.14.14-.14.25 0 .43-1 1.08-2.81.9-4 1.73-.51 0-.51.25-.94.25.18.18-.14.18-.32.18 0-.18.32-.18.5-.32-1.26.46-2.66 1.51-3.88 2.05-.11.25-.76.25-1 .57a12.59 12.59 0 0 0 3.35-.75c0 .18.18 0 .18.18v-.18c1.83-.15 4-.79 6.3-.58 1.58-.5 3.09-.21 4.64-.21a14.7 14.7 0 0 1-2.73.32h-.65a.11.11 0 0 0-.11.11c0 .21-.18 0-.18-.11 0 .11-.32.11-.32.32 0-.21-.15-.21-.15 0-.5 0-.75.15-1.08 0v.15h-.18c-.14 0-.14 0-.14.18 0-.18 0-.18-.18 0 0 0 0-.18-.11-.18 0 .18-.22.18 0 0-.22 0-.22 0-.22.18 0 0-.1-.18-.25-.18.15.18-.18.18-.18.18h-.22c0 .11-.11 0-.51.11 0-.11.22-.11.22-.11h-.22c-.14 0 0 0 0 .11-.25-.11-.57.14-.68 0s-.22.14-.22 0c-.1.14-.75.14-.93.46a7 7 0 0 0 1.15-.32c0 .22-.32.32-.65.32 0 0 0-.1.15-.1h-.15c-.18.1-.32.28-.5.1v.18a3.15 3.15 0 0 0-1.41.33s-.1 0-.1-.18c-.15.18-.47 0-.47.32-.18 0-.33-.14-.33 0s.15 0 0 .11c-.1 0 0-.11-.1-.11l-.18.11c-.22 0-.65.32-.65.18-.15 0-.15.14-.32.14.17-.14.17-.32.32-.14v-.18c0-.11-.15.18-.15 0v.18c-.28-.18-.28.14-.5 0s0 0 0 .14a.8.8 0 0 0-.68.44c0-.11-.22-.11 0-.26h.11c-.11-.18-.11 0-.33 0a.16.16 0 0 1-.18.15s.18 0 .18-.15c-.18.15-.29.15-.29.26v-.11c-.14 0 0 .11-.14.11s0 0 0-.11c-.22 0-.22.11-.22.11h-.07v.21h-.14s0 .18.14.18 0-.18.07-.18c-.07.29-.43.18-.72.43a2.44 2.44 0 0 0-1.29.44c-.11 0-.11 0-.11.21-.32 0-.32.18-.58.18a1.32 1.32 0 0 1-.64.11c-.33.32-1.26.47-1.37.79a.22.22 0 0 0-.36.16zm.47-.11zm3.24-2.37c-.15 0-.15-.11-.15 0zm.32 0c0-.11 0-.11.18-.11 0 0 .43 0 .43-.15a3.19 3.19 0 0 0-.93.26s.21-.16.32-.05zm.18.5v-.11c-.18 0-.18.11-.18.11zm0 0H7c0-.11-.18-.11-.18-.11s-.16-.05-.16.09zm.34-.16c0 .11.11 0 .33 0zm.11-.65h.22a20.55 20.55 0 0 1 2.63-.75v.14c0-.14.1-.14.1-.14s-.1.14 0 .14c.11-.32.76-.14.94-.47v.15c.14 0 .14-.15.14-.15.33 0 .65 0 .76-.18 0 .18-.11.18 0 .18h.18c.32-.28.75 0 1.08-.28-.76-.22-1.37.28-2.34.28-.15 0-.65.33-.76.15 0 .18-.32.18-.32 0 0 .18 0 .18-.15.18 0-.18-.5.25-.61.14 0 .11-.32 0-.32.11 0-.11-.25.18-.14 0h-.35c-.18 0 0 0 0 .18h-.29c0-.18 0 .14-.36 0 0 .11-.21.11-.43.32zm0 .47h.22v-.21h-.24zm.65 0c-.22-.21 0 0 .14-.21-.02.21-.16 0-.16.21zM8 17.74v-.11h-.12a.11.11 0 0 0 .12.11zm-.11 5.94c.11 0 .29 0 .29-.21-.01.21-.18.21-.3.21zm.11 0c-.11-.21 0-.21 0-.32zm2.56-2.05c.1-.14.57 0 .75-.25-.32 0-.5.11-.5 0-.25.25-.65.11-.76.25-.47.22-.75 0-1.22.32 0 0 .14 0 .14-.1a.77.77 0 0 1-.46.1c0 .18-.11.18-.11.18a1.5 1.5 0 0 0 1-.28c0 .1-.33.1-.11.28 0-.18.11 0 .11-.18-.11 0 0 0 0-.1.32 0 .54-.22.64 0 0 0 .11-.22.33 0s0-.22.18-.22c0 .22-.18.22 0 .22 0-.22.1 0 0-.22zM9.07 23s.22 0 .22-.14c.11.14 0 .14-.22.14zm.5-1c-.17 0 .15.13 0 0zm.15-4.64c-.15 0 0 .18 0 .18.22-.05 0-.05 0-.23zm.22 4.54c-.22 0-.37.1-.22.1 0-.15.22 0 .22-.15zm.61-5.29s.1 0 .1-.15h-.1zm.1-.15h.47s0-.21-.14-.21a.19.19 0 0 1-.18.21c.18-.21.18.15.18.15a.48.48 0 0 1 .32-.15l.15-.21c-.15-.05-.33.16-.33.16zm.65 4.79c-.22.18-.32 0-.47.18v.11a5.3 5.3 0 0 0 1.23-.29v-.15c.14.1 0 .28-.29.1zm.29-5c-.18 0-.51 0-.61.21a.82.82 0 0 0 1.08-.26zm1.08 0c0 .21.32 0 .32 0a2.42 2.42 0 0 1 .76 0s0-.08.14-.08-.25 0-.25-.14c-.22.22-.5 0-.65.14 0-.14-.5.08-.5-.14 0 .14-.15 0-.15 0v.22c-.28-.08-.28 0-.75 0 0 .21.14.21.32 0 0 .21-.18.21 0 .21 0-.21.15 0 .15 0s-.15-.21 0-.21c.1.21.1.21.1 0v.21c.18 0 .18 0 .33-.21h.18c.33-.05.47-.13.47-.05zm-.76.64s.15 0 0 .22c0 0-.18-.22 0-.32-.18.1-.18 0-.18 0v.32h.33s.1-.22 0-.22zm.43 4.21c0 .15-.18 0-.28.15H13c0-.2-.19-.05-.19-.2zm0-2c0 .18-.18 0-.18.18zm.8 2c-.33 0-.47-.21-.47 0a.3.3 0 0 0 .94-.05zm.18-5.57h-.18c.47.13.65.13.65-.05zm.1 5.57c.22 0 .22 0 .22-.21a.51.51 0 0 0-.5.21c.75.1.75-.26.75-.05zm.22.9c-.22-.1 0-.1.11-.1s.36-.05.36.1z"/><path class="cls-1" d="M22 20.87c-.43 0-.68.72-1.11 1.05.43 0 .68-.33 1-.54 0 .47-.54.54-1 .75a1.53 1.53 0 0 0-.94.76V23a10.06 10.06 0 0 1-1.72 1.73 6.59 6.59 0 0 1-1.08 1.4c-.15.36-.8.86-1.12 1.22a16.25 16.25 0 0 1-1.48 1.73.42.42 0 0 1-.36.4c.15 0-.21.36-.21.36a8 8 0 0 1-1.51 1.58 36.54 36.54 0 0 1-2.82 3.28c0 .18.43 0 .43 0-.22.18 0 .18-.22.39-.21 0-.21-.39-.39-.39.18.18-.15.18 0 .18a2.25 2.25 0 0 1-.76.54A8.72 8.72 0 0 0 6.44 34s.22 0 0-.21c0 0 0 .21-.21 0a.26.26 0 0 1 0-.43c.83-2.7 2.7-4.61 4.61-6.38a33.38 33.38 0 0 1 4-3.09v-.22a19.61 19.61 0 0 0 1.91-1.22c.36-.18.75-.54 1.08-.54-1.08 1-2.45 1.62-3.32 2.48.11 0 .33-.39.54-.5 0 .32-.43.32-.54.5s-.36.54-.57.65a1.2 1.2 0 0 0 .68-.5c.22.18.22-.15.43-.15a5.51 5.51 0 0 1 1.26-1c.65-.36 1.34-.47 1.34-1.08.18 0 .39-.36.54-.43-.15 0-.15.28-.15.07-.21 0 0 0-.21.21v-.21c.21-.07.36-.33.57-.33C24 15.12 30.27 8.31 35.82 1.51c0-.61 0-1.4.61-1.4a1.05 1.05 0 0 1 1.44.79c.21 0 0-.11.21-.11 0 .32 0 .5.19.5a.49.49 0 0 0 .21.36.31.31 0 0 1-.21.54v.11c0 .22 0-.11-.19 0a.77.77 0 0 0-.21.61 7.69 7.69 0 0 0-1.3 1.73c0 .36-.54.47-.32.86.32-.72.86-1.4 1.26-2.15-.22 1.11-1.08 2-1.69 3.05 0-.21.21-.21.21-.43-.75.94-1.18 2.05-1.87 3a3.88 3.88 0 0 1-.93 1.94 5.08 5.08 0 0 1 .93-1.55c-.21 0-.39.33-.39.47 0-.14 0-.47.18-.47-.29 0-.18.33-.29.47-.25.4-.65.54-.65.86a39.72 39.72 0 0 0-2.2 4.94c.15-.22.36-.22.54-.44 0 .22-.18.22-.18.22.72-.32 1.52-.32 2.06-.65 0 0 .18 0 .18.15 0-.15.36-.15.75-.33 1.33-.47 3-.68 4.11-1.22.21 0 0 .14.21.14a62.49 62.49 0 0 1 7.6-1.19c.64 0 1-.21 1.51-.21a11.81 11.81 0 0 1 2.26-.1 3.42 3.42 0 0 0 1.7-.28c.21 0 .75 0 .43.28a6.94 6.94 0 0 0-2.13.36.19.19 0 0 1 .19-.21c-.33.21-.54-.15-.87.21 0 0-.21.18-.21-.21-.33.21-.83.21-1.16.39-.21 0-.43-.18-.57-.18v.18a.18.18 0 0 1-.18-.18v.18h-.76c-.32 0-.9 0-1.11.33v-.22c-.18 0-.18.22-.33 0v.22c.15 0-.21 0 0-.22a.21.21 0 0 0-.21.22c-.18 0 0-.22-.18 0-.22 0 0 .21-.22 0-.22 0-.36.21-.76.21a.21.21 0 0 0-.21-.21c0 .21.21 0 .21.21h-.21c0-.21-.15 0-.15.11-.18 0 0-.11-.18-.32-.14.21 0 .21 0 .21-.36 0-.36.11-.75.11 0-.11.18 0 0-.11 0 0 0 .11-.22.33-.32-.22-.75.14-1.08 0 0 .14 0 .14-.14.14a.4.4 0 0 0-.43.4c-.18 0 0-.22 0-.4-.4 0-.51.18-.72.18h.21c-.65 0-.65.22-1.11.22 0 0 .14.21 0 .21s.14 0 .14.11c-.57.22-1.33.36-1.87.54 0-.18.14-.18.14-.32-.14.14-.32 0-.32.32.18 0 0-.18.18-.18 0 .18-.18.18-.4.18-.32.33-1.08.15-1.44.43a.66.66 0 0 0-.61.22c-.14-.22-.14-.22-.36 0 .36.22-.21 0 0 .36-.21-.14-.39 0-.5.22-.25-.22-.65.32-1 .32A1.22 1.22 0 0 0 33 16s-.14.18-.14 0c.14 0 .14 0 .14-.2 0 .22-.14 0-.14.22h-.18c.18 0-.22 0-.22.18a.82.82 0 0 1 .4-.18c-.18.18-.62.5-.62.32-.14 0 0 .18 0 .18-.14-.18-.14 0-.36 0v.22h-.38c-.33.14-.69.32-1.08.46.18.18.39-.14.54-.14 0 .14-.15.14-.15.32-.21-.18-.39 0-.54 0 .33-.18 0 .36 0 0-.21.15-.21.36-.43.36a7.13 7.13 0 0 0-.75 2.13c-.18 0-.18.14-.18.36s-.33.64-.33 1a3.4 3.4 0 0 0-.21 1.26 4.67 4.67 0 0 0 .72-1.26c.25.18 0 .65-.18.72 0 .21 0 0 .18 0a4.07 4.07 0 0 1-.51 1.22h.11c0 .76-.68 1.26-.47 1.91-.21 0-.21 0-.21.22-.22 0-.44-.22-.44 0-.57-.25-.93-.9-1.57-1.3a18.12 18.12 0 0 1 1.52-5.22c-.22 0-.62.14-.83.14a5.6 5.6 0 0 1 .83-.32c-.22 0 0 0 0-.15-.22-.21-.44.15-.44 0 .22 0 .22-.21.44-.21 0 0 0-.11.1-.11-.93.11-1.62.79-2.37 1H25s.22 0 .22.1c-.4.22-.76.44-.76.44-.18-.22.15-.22.15-.44a14.5 14.5 0 0 0-2.42 1.62c-.18 0 0-.1 0-.1s-.34.12-.19.12zm-4.46 3.86c.15-.18.33-.33.33-.51-2.45 3-5 5.8-7.31 8.53a88.32 88.32 0 0 0 6.59-7.48c.17 0 .38-.33.38-.54zm-1.29-1.05a14.69 14.69 0 0 0-3.35 2.81 6.39 6.39 0 0 1 .86-.68c-.18.14 0 .32-.18.32l-.36.36a.22.22 0 0 1 .22-.22c-.22.4-1.19.94-1 1.08 0 .18-.33.18-.33.33.33-.33.76-.69 1.08-1v.14a14.14 14.14 0 0 0-2.37 2.67s0-.18.14 0c.5-.94 1.62-1.48 2.23-2.27 1-.4 1.44-1.26 2.2-1.94h-.22a13.17 13.17 0 0 0 2-2.13c-.36.22-.58.54-.9.4zm-4.94 5.8a.14.14 0 0 1-.14.14A13.86 13.86 0 0 0 14 26.81l-3 3c.16.03.16-.33.3-.33zm1.59-2.67c.14.18-.29.18-.29.4-.15-.21.28-.21.28-.4zm3.1-3.45c-.4.32-.61.54-.94.54.76-.54 1.48-.9 2.24-1.44-.16.43-.96.68-1.3.9zm-.94 2.12s0-.21.11-.21c.02.21-.09.21-.09.21zm5.8-3.63c0 .07-.22.07-.22.28.02-.21.24-.21.24-.28zm.43-.65c-.21.18-.21.39-.43.65.24-.26.45-.47.45-.65zm.68.18c-.14.21.18-.18.54-.18-.12 0-.34.18-.51.18zm6.92-8.75c-.22.43-.54.54-.69.9-1.2 1.08-2.2 2.67-3.4 3.85-.21.36-.79.54-.79 1.08 0-.21.58-.32.58-.32.21 0 .39 0 .39-.22.22 0 0-.18.22-.18 0 .18.21 0 .21 0-.21.18-.43.4-.61.4 0 .11-.21 0-.21.11.39-.11.82-.11 1.15-.51-.18-.21-.18 0-.33 0v-.21c.15.21.15 0 .33 0 .21.39-.54.72-.76.61 0 .32-.18.32-.39.32 0-.21.21-.21-.15-.21.36.36-.43.36-.54.68.11 0 .11-.14.36-.14 0 .14.18-.18.18 0s-.43.36-.75.36c0 .1-.33.32-.54.54-.22 0-.62.18-.62.32.22 0 .83-.32 1-.32 0 .18-.36.18-.58.32a16.06 16.06 0 0 0 2.63-1.4 2.27 2.27 0 0 1-.76.32c.61-.32 1.51-.68 2.23-1 0 .22-.18 0-.18.22.4-.22.94-.4.72-.76-.32.36-.72.15-1.26.76v-.22c0 .22 0 0-.21.22a5.89 5.89 0 0 0-1.51.65c-.15 0 0 .14-.15.14v-.32c.76-.15 1.66-.47 1.87-1.08-.21.21-.36.21-.57.39 0-.18.21-.18 0-.39.36 0 .21-.15.36-.15 0 0 .21 0 0-.18a.19.19 0 0 1 .21.18c.18-.32.72-.18.72-.32-.18.14-.18.47-.39.47v-.15c-.15.15 0-.18-.15-.18-.18.18.15.33 0 .33.36 0 .36-.15.54-.33 0 .18 0 .18.22.18-.22-.18.22-.18.22-.32 0 .14.32.14.1 0a3.37 3.37 0 0 1-.54.14c0-.14.22 0 .22-.14s0-.18.22 0h-.22c.22 0 .54 0 .54-.18 0 0-.22.18-.22 0a1 1 0 0 1 .44-.14c.57-1.52 1.33-2.81 1.83-4.22-.18 0-.18.11-.18 0a.77.77 0 0 1 .18-.39 17.06 17.06 0 0 1-1.62 1.8c.47-.76 1.12-1.3 1.44-1.95.18 0 .18-.28.18-.39l-.18.11c-.34.29-.34.81-.77.92zm-5.55 7.6c0-.22.15 0 .15-.22.2-.01-.13.22-.13.22zm.9-2.49c.18 0 0 .18-.25.18-.09.33.27-.18.27-.18zM24 19.87c-.11-.18.25 0 .25-.18zm.43-.72s-.18 0-.18.1c.01-.1.34-.1.19-.1zm.54.72a8 8 0 0 0 1-.62 2.9 2.9 0 0 1-.97.62zm1.33-1.26a.71.71 0 0 1 .54-.15c.01.15-.35.15-.53.15zm.72-.15c-.18-.21.22-.21.44-.21-.21.21-.46 0-.46.21zm0-3.34a6.07 6.07 0 0 0 1.19-1.19A6.06 6.06 0 0 1 27 15.12zm2.49-2.78c-.18.18-.61.29-.43.51.01-.22.44-.33.44-.51zm3.49-.9c0-.18 0-.39.22-.5.01.11-.22.32-.22.5zm1.51 4.22c-.36 0 .33 0 .22-.22a.22.22 0 0 1-.21.22zm1.73-10c0 .18-.43.18-.22.32-.02-.15.23-.33.23-.33zm1.83 8.6c0-.11.19-.11.19-.11h-.4c.21.11-.14 0-.14.11s.15-.12.36-.01zm.4 0c0-.11.22-.11 0-.32 0 .21-.21 0-.21.21l.21.11zm0 0h-.21c.01-.12.22.21.22-.01zm.23-12.32c-.22-.29.46-.11.32 0a.3.3 0 0 0-.32 0zm.14 12.31s0-.11.18 0c-.18-.11 0-.11 0-.32v.32zm.54-.32c-.22.21 0 .32-.22.21v-.21zm.43 0c-.21 0-.21.21-.43 0 0-.22.43.21.43-.22.11.22 0 .22 0 .43s-.21-.21 0-.21zm.94 0c-.18-.22-.43 0-.43-.22h.43zm.14-.4v.18h-.14c0-.18.14 0 .14-.18zm2-.14c0-.22.18 0 .18-.22.05.22.05.22-.13.22z"/></svg>