<svg id="Слой_1" data-name="Слой 1" xmlns="http://www.w3.org/2000/svg" viewBox="0 0 52.08 35.42"><defs><style>.cls-1{fill:#fff;}</style></defs><title>logo</title><path class="cls-1" d="M2.45,26s-.11,0-.29.18A.18.18,0,0,1,2.34,26c-.18-.11-.18.18-.32,0s-.18,0-.18.18c-.15-.29-.47-.18-.58-.18v-.11A.68.68,0,0,1,.94,26c-.18-.11-.18-.11-.18-.25-.15,0-.15.14-.33.14s.18-.47.18-.65h0c-.18.18-.18-.14-.32-.14A1.93,1.93,0,0,0,0,24.44c.29-.76.94-.58,1.37-1.08h.21c.11-.33.58-.47,1.08-.65,3.06-1.66,6.16-3.38,9.22-5.22a2.8,2.8,0,0,1-1.08,0c-.65.25-1.23,0-1.73.25-.25-.25-.57.22-.9,0v-.11c-.18.33-.29.11-.65.11v-.11c-.21.11-.72-.14-.86,0a1.62,1.62,0,0,0-1.26-.32V17.2c-.9-.14-2-2.62-.32-2.62h.64v.1c0,.15-.32.15-.43.33v.14a.49.49,0,0,0-.47.51c2,.9,5.12.1,7.71-.18,0,0,0,.18.1.18a2.85,2.85,0,0,1,1.73-.18c.18,0,0-.15,0-.15.29,0,1.08.15,1.08-.5.18,0,0-.15.18-.15v.15a.15.15,0,0,0,.15-.15,9.21,9.21,0,0,0,1.08,1.73c0,.15-.15,0-.15.15.33,0,.15.28.47.5-.14.14-.14.25,0,.43-1,1.08-2.81.9-4,1.73-.51,0-.51.25-.94.25.18.18-.14.18-.32.18,0-.18.32-.18.5-.32-1.26.46-2.66,1.51-3.88,2.05-.11.25-.76.25-1,.57a12.59,12.59,0,0,0,3.35-.75c0,.18.18,0,.18.18V21.2c1.83-.15,4-.79,6.3-.58,1.58-.5,3.09-.21,4.64-.21a14.7,14.7,0,0,1-2.73.32h-.65a.11.11,0,0,0-.11.11c0,.21-.18,0-.18-.11,0,.11-.32.11-.32.32,0-.21-.15-.21-.15,0-.5,0-.75.15-1.08,0v.15h-.18c-.14,0-.14,0-.14.18,0-.18,0-.18-.18,0,0,0,0-.18-.11-.18,0,.18-.22.18,0,0-.22,0-.22,0-.22.18,0,0-.1-.18-.25-.18.15.18-.18.18-.18.18H15.3c0,.11-.11,0-.51.11,0-.11.22-.11.22-.11h-.22c-.14,0,0,0,0,.11-.25-.11-.57.14-.68,0s-.22.14-.22,0c-.1.14-.75.14-.93.46a7,7,0,0,0,1.15-.32c0,.22-.32.32-.65.32,0,0,0-.1.15-.1h-.15c-.18.1-.32.28-.5.1v.18a3.15,3.15,0,0,0-1.41.33s-.1,0-.1-.18c-.15.18-.47,0-.47.32-.18,0-.33-.14-.33,0s.15,0,0,.11h0c-.1,0,0-.11-.1-.11l-.18.11c-.22,0-.65.32-.65.18-.15,0-.15.14-.32.14.17-.14.17-.32.32-.14v-.18c0-.11-.15.18-.15,0v.18c-.28-.18-.28.14-.5,0s0,0,0,.14a.8.8,0,0,0-.68.44c0-.11-.22-.11,0-.26H8.5c-.11-.18-.11,0-.33,0a.16.16,0,0,1-.18.15s.18,0,.18-.15c-.18.15-.29.15-.29.26v-.11c-.14,0,0,.11-.14.11s0,0,0-.11c-.22,0-.22.11-.22.11H7.45v.21H7.31s0,.18.14.18,0-.18.07-.18c-.07.29-.43.18-.72.43a2.44,2.44,0,0,0-1.29.44h0c-.11,0-.11,0-.11.21-.32,0-.32.18-.58.18h0a1.32,1.32,0,0,1-.64.11c-.33.32-1.26.47-1.37.79A.22.22,0,0,0,2.45,26Zm.47-.11h0Zm3.24-2.37c-.15,0-.15-.11-.15,0Zm.32,0c0-.11,0-.11.18-.11,0,0,.43,0,.43-.15a3.19,3.19,0,0,0-.93.26S6.37,23.36,6.48,23.47Zm.18.5v-.11c-.18,0-.18.11-.18.11Zm0,0H7c0-.11-.18-.11-.18-.11h0S6.66,23.86,6.66,24ZM7,23.86c0,.11.11,0,.33,0Zm.11-.65h.22a20.55,20.55,0,0,1,2.63-.75v.14c0-.14.1-.14.1-.14s-.1.14,0,.14c.11-.32.76-.14.94-.47v.15c.14,0,.14-.15.14-.15.33,0,.65,0,.76-.18,0,.18-.11.18,0,.18h.18c.32-.28.75,0,1.08-.28-.76-.22-1.37.28-2.34.28-.15,0-.65.33-.76.15,0,.18-.32.18-.32,0,0,.18,0,.18-.15.18,0-.18-.5.25-.61.14,0,.11-.32,0-.32.11,0-.11-.25.18-.14,0H8.17c-.18,0,0,0,0,.18H7.88c0-.18,0,.14-.36,0C7.52,23,7.31,23,7.09,23.21Zm0,.47h.22v-.21H7.09Zm.65,0c-.22-.21,0,0,.14-.21C7.88,23.68,7.74,23.47,7.74,23.68ZM8,17.74v-.11H7.88A.11.11,0,0,0,8,17.74Zm-.11,5.94c.11,0,.29,0,.29-.21C8.17,23.68,8,23.68,7.88,23.68Zm.11,0c-.11-.21,0-.21,0-.32Zm2.56-2.05c.1-.14.57,0,.75-.25-.32,0-.5.11-.5,0-.25.25-.65.11-.76.25-.47.22-.75,0-1.22.32,0,0,.14,0,.14-.1a.77.77,0,0,1-.46.1c0,.18-.11.18-.11.18a1.5,1.5,0,0,0,1-.28c0,.1-.33.1-.11.28,0-.18.11,0,.11-.18-.11,0,0,0,0-.1.32,0,.54-.22.64,0,0,0,.11-.22.33,0h0s0-.22.18-.22c0,.22-.18.22,0,.22h0C10.55,21.63,10.65,21.85,10.55,21.63ZM9.07,23s.22,0,.22-.14C9.4,23,9.29,23,9.07,23ZM9.57,22h0C9.4,22,9.72,22.13,9.57,22Zm.15-4.64c-.15,0,0,.18,0,.18C9.94,17.49,9.72,17.49,9.72,17.31Zm.22,4.54c-.22,0-.37.1-.22.1C9.72,21.85,9.94,22,9.94,21.85Zm.61-5.29s.1,0,.1-.15h-.1Zm.1-.15.47,0s0-.21-.14-.21a.19.19,0,0,1-.18.21c.18-.21.18.15.18.15a.48.48,0,0,1,.32-.15l.15-.21h0C11.3,16.2,11.12,16.41,11.12,16.41Zm.65,4.79c-.22.18-.32,0-.47.18v.11a5.3,5.3,0,0,0,1.23-.29v-.15C12.2,21.2,12.06,21.38,11.77,21.2Zm.29-5c-.18,0-.51,0-.61.21A.82.82,0,0,0,12.06,16.2Zm1.08,0c0,.21.32,0,.32,0a2.42,2.42,0,0,1,.76,0s0-.08.14-.08-.25,0-.25-.14c-.22.22-.5,0-.65.14,0-.14-.5.08-.5-.14,0,.14-.15,0-.15,0v.22c-.28-.08-.28,0-.75,0,0,.21.14.21.32,0,0,.21-.18.21,0,.21,0-.21.15,0,.15,0s-.15-.21,0-.21c.1.21.1.21.1,0v.21c.18,0,.18,0,.33-.21h.18C13,16.2,13.14,16.12,13.14,16.2Zm-.76.64s.15,0,0,.22c0,0-.18-.22,0-.32-.18.1-.18,0-.18,0v.32h.33s.1-.22,0-.22Zm.43,4.21c0,.15-.18,0-.28.15H13C13,21.05,12.81,21.2,12.81,21.05Zm0-2c0,.18-.18,0-.18.18Zm.8,2c-.33,0-.47-.21-.47,0A.3.3,0,0,0,13.61,21.05Zm.18-5.57h-.18C13.61,15.66,13.79,15.66,13.79,15.48Zm.1,5.57c.22,0,.22,0,.22-.21a.51.51,0,0,0-.5.21C13.89,21.2,13.89,20.84,13.89,21.05Zm.22.9c-.22-.1,0-.1.11-.1S14.11,21.85,14.11,22Z"/><path class="cls-1" d="M22,20.87c-.43,0-.68.72-1.11,1.05.43,0,.68-.33,1-.54,0,.47-.54.54-1,.75a1.53,1.53,0,0,0-.94.76V23a10.06,10.06,0,0,1-1.72,1.73,6.59,6.59,0,0,1-1.08,1.4c-.15.36-.8.86-1.12,1.22a16.25,16.25,0,0,1-1.48,1.73.42.42,0,0,1-.36.4c.15,0-.21.36-.21.36a8,8,0,0,1-1.51,1.58A36.54,36.54,0,0,1,9.65,34.7c0,.18.43,0,.43,0-.22.18,0,.18-.22.39-.21,0-.21-.39-.39-.39.18.18-.15.18,0,.18a2.25,2.25,0,0,1-.76.54A8.72,8.72,0,0,0,6.44,34s.22,0,0-.21c0,0,0,.21-.21,0v0a.26.26,0,0,1,0-.43c.83-2.7,2.7-4.61,4.61-6.38a33.38,33.38,0,0,1,4-3.09v-.22a19.61,19.61,0,0,0,1.91-1.22c.36-.18.75-.54,1.08-.54-1.08,1-2.45,1.62-3.32,2.48.11,0,.33-.39.54-.5,0,.32-.43.32-.54.5s-.36.54-.57.65a1.2,1.2,0,0,0,.68-.5c.22.18.22-.15.43-.15a5.51,5.51,0,0,1,1.26-1c.65-.36,1.34-.47,1.34-1.08.18,0,.39-.36.54-.43-.15,0-.15.28-.15.07-.21,0,0,0-.21.21v-.21c.21-.07.36-.33.57-.33C24,15.12,30.27,8.31,35.82,1.51c0-.61,0-1.4.61-1.4A1.05,1.05,0,0,1,37.87.9c.21,0,0-.11.21-.11,0,.32,0,.5.19.5a.49.49,0,0,0,.21.36.31.31,0,0,1-.21.54V2.3c0,.22,0-.11-.19,0a.77.77,0,0,0-.21.61,7.69,7.69,0,0,0-1.3,1.73c0,.36-.54.47-.32.86.32-.72.86-1.4,1.26-2.15-.22,1.11-1.08,2-1.69,3.05,0-.21.21-.21.21-.43-.75.94-1.18,2.05-1.87,3a3.88,3.88,0,0,1-.93,1.94,5.08,5.08,0,0,1,.93-1.55c-.21,0-.39.33-.39.47,0-.14,0-.47.18-.47-.29,0-.18.33-.29.47-.25.4-.65.54-.65.86a39.72,39.72,0,0,0-2.2,4.94c.15-.22.36-.22.54-.44,0,.22-.18.22-.18.22.72-.32,1.52-.32,2.06-.65,0,0,.18,0,.18.15,0-.15.36-.15.75-.33,1.33-.47,3-.68,4.11-1.22.21,0,0,.14.21.14a62.49,62.49,0,0,1,7.6-1.19c.64,0,1-.21,1.51-.21A11.81,11.81,0,0,1,49.85,12a3.42,3.42,0,0,0,1.7-.28c.21,0,.75,0,.43.28a6.94,6.94,0,0,0-2.13.36.19.19,0,0,1,.19-.21c-.33.21-.54-.15-.87.21,0,0-.21.18-.21-.21-.33.21-.83.21-1.16.39-.21,0-.43-.18-.57-.18v.18a.18.18,0,0,1-.18-.18v.18h-.76c-.32,0-.9,0-1.11.33v-.22h0c-.18,0-.18.22-.33,0v.22c.15,0-.21,0,0-.22a.21.21,0,0,0-.21.22c-.18,0,0-.22-.18,0-.22,0,0,.21-.22,0h0c-.22,0-.36.21-.76.21a.21.21,0,0,0-.21-.21c0,.21.21,0,.21.21h-.21c0-.21-.15,0-.15.11-.18,0,0-.11-.18-.32-.14.21,0,.21,0,.21-.36,0-.36.11-.75.11,0-.11.18,0,0-.11,0,0,0,.11-.22.33-.32-.22-.75.14-1.08,0,0,.14,0,.14-.14.14h0a.4.4,0,0,0-.43.4c-.18,0,0-.22,0-.4-.4,0-.51.18-.72.18h.21c-.65,0-.65.22-1.11.22,0,0,.14.21,0,.21s.14,0,.14.11c-.57.22-1.33.36-1.87.54,0-.18.14-.18.14-.32-.14.14-.32,0-.32.32.18,0,0-.18.18-.18,0,.18-.18.18-.4.18-.32.33-1.08.15-1.44.43a.66.66,0,0,0-.61.22c-.14-.22-.14-.22-.36,0,.36.22-.21,0,0,.36-.21-.14-.39,0-.5.22-.25-.22-.65.32-1,.32A1.22,1.22,0,0,0,33,16s-.14.18-.14,0C33,16,33,16,33,15.8h0c0,.22-.14,0-.14.22h-.18c.18,0-.22,0-.22.18a.82.82,0,0,1,.4-.18c-.18.18-.62.5-.62.32-.14,0,0,.18,0,.18-.14-.18-.14,0-.36,0v.22H31.5c-.33.14-.69.32-1.08.46.18.18.39-.14.54-.14,0,.14-.15.14-.15.32-.21-.18-.39,0-.54,0,.33-.18,0,.36,0,0-.21.15-.21.36-.43.36a7.13,7.13,0,0,0-.75,2.13c-.18,0-.18.14-.18.36s-.33.64-.33,1a3.4,3.4,0,0,0-.21,1.26,4.67,4.67,0,0,0,.72-1.26c.25.18,0,.65-.18.72,0,.21,0,0,.18,0a4.07,4.07,0,0,1-.51,1.22h.11c0,.76-.68,1.26-.47,1.91-.21,0-.21,0-.21.22-.22,0-.44-.22-.44,0C27,25.05,26.64,24.4,26,24a18.12,18.12,0,0,1,1.52-5.22c-.22,0-.62.14-.83.14a5.6,5.6,0,0,1,.83-.32c-.22,0,0,0,0-.15-.22-.21-.44.15-.44,0,.22,0,.22-.21.44-.21,0,0,0-.11.1-.11-.93.11-1.62.79-2.37,1H25s.22,0,.22.1c-.4.22-.76.44-.76.44-.18-.22.15-.22.15-.44a14.5,14.5,0,0,0-2.42,1.62c-.18,0,0-.1,0-.1S21.85,20.87,22,20.87Zm-4.46,3.86c.15-.18.33-.33.33-.51-2.45,3-5,5.8-7.31,8.53a88.32,88.32,0,0,0,6.59-7.48C17.32,25.27,17.53,24.94,17.53,24.73Zm-1.29-1.05a14.69,14.69,0,0,0-3.35,2.81,6.39,6.39,0,0,1,.86-.68c-.18.14,0,.32-.18.32l-.36.36a.22.22,0,0,1,.22-.22c-.22.4-1.19.94-1,1.08,0,.18-.33.18-.33.33.33-.33.76-.69,1.08-1v.14a14.14,14.14,0,0,0-2.37,2.67s0-.18.14,0c.5-.94,1.62-1.48,2.23-2.27,1-.4,1.44-1.26,2.2-1.94h-.22a13.17,13.17,0,0,0,2-2.13c-.36.22-.58.54-.9.4Zm-4.94,5.8a.14.14,0,0,1-.14.14A13.86,13.86,0,0,0,14,26.81c-1.08,1.08-2,2-3,3C11.16,29.84,11.16,29.48,11.3,29.48Zm1.59-2.67c.14.18-.29.18-.29.4C12.46,27,12.89,27,12.89,26.81ZM16,23.36c-.4.32-.61.54-.94.54.76-.54,1.48-.9,2.24-1.44C17.14,22.89,16.34,23.14,16,23.36Zm-.94,2.12s0-.21.11-.21C15.19,25.48,15.08,25.48,15.08,25.48Zm5.8-3.63c0,.07-.22.07-.22.28C20.66,21.92,20.88,21.92,20.88,21.85Zm.43-.65c-.21.18-.21.39-.43.65C21.1,21.59,21.31,21.38,21.31,21.2Zm.68.18c-.14.21.18-.18.54-.18C22.39,21.2,22.17,21.38,22,21.38Zm6.92-8.75c-.22.43-.54.54-.69.9C27,14.61,26,16.2,24.8,17.38c-.21.36-.79.54-.79,1.08,0-.21.58-.32.58-.32.21,0,.39,0,.39-.22.22,0,0-.18.22-.18,0,.18.21,0,.21,0-.21.18-.43.4-.61.4,0,.11-.21,0-.21.11.39-.11.82-.11,1.15-.51-.18-.21-.18,0-.33,0v-.21c.15.21.15,0,.33,0,.21.39-.54.72-.76.61,0,.32-.18.32-.39.32,0-.21.21-.21-.15-.21.36.36-.43.36-.54.68.11,0,.11-.14.36-.14,0,.14.18-.18.18,0s-.43.36-.75.36h0c0,.1-.33.32-.54.54-.22,0-.62.18-.62.32.22,0,.83-.32,1-.32,0,.18-.36.18-.58.32a16.06,16.06,0,0,0,2.63-1.4,2.27,2.27,0,0,1-.76.32c.61-.32,1.51-.68,2.23-1,0,.22-.18,0-.18.22.4-.22.94-.4.72-.76-.32.36-.72.15-1.26.76v-.22c0,.22,0,0-.21.22a5.89,5.89,0,0,0-1.51.65c-.15,0,0,.14-.15.14v-.32c.76-.15,1.66-.47,1.87-1.08-.21.21-.36.21-.57.39,0-.18.21-.18,0-.39.36,0,.21-.15.36-.15,0,0,.21,0,0-.18a.19.19,0,0,1,.21.18c.18-.32.72-.18.72-.32-.18.14-.18.47-.39.47v-.15c-.15.15,0-.18-.15-.18-.18.18.15.33,0,.33.36,0,.36-.15.54-.33,0,.18,0,.18.22.18-.22-.18.22-.18.22-.32,0,.14.32.14.1,0a3.37,3.37,0,0,1-.54.14c0-.14.22,0,.22-.14s0-.18.22,0h-.22c.22,0,.54,0,.54-.18,0,0-.22.18-.22,0a1,1,0,0,1,.44-.14c.57-1.52,1.33-2.81,1.83-4.22-.18,0-.18.11-.18,0a.77.77,0,0,1,.18-.39,17.06,17.06,0,0,1-1.62,1.8c.47-.76,1.12-1.3,1.44-1.95.18,0,.18-.28.18-.39l-.18.11C29.34,12,29.34,12.52,28.91,12.63Zm-5.55,7.6c0-.22.15,0,.15-.22C23.69,20,23.36,20.23,23.36,20.23Zm.9-2.49c.18,0,0,.18-.25.18C23.9,18.25,24.26,17.74,24.26,17.74ZM24,19.87c-.11-.18.25,0,.25-.18Zm.43-.72s-.18,0-.18.1C24.26,19.15,24.59,19.15,24.44,19.15Zm.54.72a8,8,0,0,0,1-.62A2.9,2.9,0,0,1,25,19.87Zm1.33-1.26a.71.71,0,0,1,.54-.15C26.85,18.61,26.49,18.61,26.31,18.61Zm.72-.15c-.18-.21.22-.21.44-.21C27.25,18.46,27,18.25,27,18.46Zm0-3.34a6.07,6.07,0,0,0,1.19-1.19A6.06,6.06,0,0,1,27,15.12Zm2.49-2.78c-.18.18-.61.29-.43.51C29.09,12.63,29.52,12.52,29.52,12.34Zm3.49-.9c0-.18,0-.39.22-.5C33.23,11.05,33,11.26,33,11.44Zm1.51,4.22c-.36,0,.33,0,.22-.22A.22.22,0,0,1,34.52,15.66Zm1.73-10c0,.18-.43.18-.22.32C36,5.83,36.25,5.65,36.25,5.65Zm1.83,8.6c0-.11.19-.11.19-.11h-.4c.21.11-.14,0-.14.11S37.87,14.14,38.08,14.25Zm.4,0c0-.11.22-.11,0-.32,0,.21-.21,0-.21.21h0l.21.11v0Zm0,0h-.21C38.27,14.14,38.48,14.47,38.48,14.25ZM38.7,1.94c-.22-.29.46-.11.32,0A.3.3,0,0,0,38.7,1.94Zm.14,12.31s0-.11.18,0c-.18-.11,0-.11,0-.32h0v.32Zm.54-.32c-.22.21,0,.32-.22.21v-.21Zm.43,0c-.21,0-.21.21-.43,0,0-.22.43.21.43-.22.11.22,0,.22,0,.43h0S39.6,13.93,39.81,13.93Zm.94,0c-.18-.22-.43,0-.43-.22h.43Zm.14-.4v.18h-.14C40.75,13.53,40.89,13.71,40.89,13.53Zm2-.14c0-.22.18,0,.18-.22C43.12,13.39,43.12,13.39,42.94,13.39Z"/></svg>