<?xml version="1.0" encoding="utf-8"?>
<!-- Generator: Adobe Illustrator 23.0.2, SVG Export Plug-In . SVG Version: 6.00 Build 0)  -->
<svg version="1.1" id="Layer_1" xmlns="http://www.w3.org/2000/svg" xmlns:xlink="http://www.w3.org/1999/xlink" x="0px" y="0px"
	 viewBox="0 0 28 43" style="enable-background:new 0 0 28 43;" xml:space="preserve">
<style type="text/css">
	.st0{fill:none;stroke:#F0004D;stroke-linecap:round;stroke-linejoin:round;stroke-miterlimit:10;}
	.st1{fill:none;stroke:#F0004D;stroke-miterlimit:10;}
</style>
<g>
	<path class="st0" d="M0.6,10.6c0.2-1.3,0.5-2.6,1.1-3.8C2.8,4.7,4.5,3,6.8,1.9c1.8-0.9,3.7-1.3,5.7-1.4c0.1,0,0.2,0,0.4-0.1
		c0.7,0,1.5,0,2.2,0c0.9,0.1,1.8,0.2,2.6,0.3c2.4,0.4,4.5,1.3,6.3,2.9c1.9,1.7,2.9,3.8,3.3,6.3c0.1,0.8,0.2,1.6,0.2,2.4
		c0,2.6,0,5.3,0,7.9"/>
	<path class="st0" d="M27.5,22.5C27.5,22.5,27.5,22.4,27.5,22.5"/>
	<path class="st0" d="M27.5,24.5c0,2.1,0,4.1,0,6.2c0,1.9-0.4,3.7-1.2,5.4c-1.1,2.2-2.8,3.8-5,4.9c-2.6,1.2-5.4,1.5-8.2,1.4
		c-2.2-0.1-4.3-0.5-6.2-1.4c-2.7-1.3-4.5-3.3-5.5-5.9c-0.6-1.4-0.8-3-0.8-4.5c0-5.9,0-11.7,0-17.5"/>
	<path class="st1" d="M12.2,11.5c0,0.6,0,1.2,0,1.8c0,1,0.8,1.8,1.8,1.8c1,0,1.8-0.7,1.8-1.8c0-1.2,0-2.3,0-3.5C15.8,8.8,15,8,14,8
		c-1,0-1.8,0.7-1.8,1.8C12.2,10.4,12.2,11,12.2,11.5z"/>
</g>
</svg>
