<svg height="512" width="512" xmlns="http://www.w3.org/2000/svg"><path d="M437.012 74.982C390.66 28.641 326.733 0 255.997 0S121.334 28.641 74.982 74.982C28.636 121.339 0 185.407 0 255.997c0 70.737 28.636 134.663 74.982 181.02C121.334 483.363 185.261 512 255.997 512s134.663-28.637 181.015-74.983C483.358 390.66 512 326.734 512 255.997c0-70.59-28.642-134.658-74.988-181.015z" fill="#191919"/><path clip-rule="evenodd" d="M397.602 184.7c-3.826-2.832-17.574-2.832-31.181-2.832-13.894.283-27.787.283-31.049 1.56-2.969 1.131-9.633 17.292-18.276 33.871-9.931 18.721-21.972 36.86-29.631 36.567-10.062 0-7.648-30.756-6.941-53.571.137-14.888-2.271-19.71-4.397-20.977-5.245-3.69-19.7-7.225-19.7-7.225s-43.383-3.267-49.472 15.444c8.36 1.136 22.537-1.424 17.009 56.55-.424 2.842-6.664 26.652-26.793-5.528-5.104-8.073-24.375-56.409-31.181-56.691-22.264-.429-44.367-1.419-52.016 2.832-7.235 4.256 9.633 37.421 38.127 81.935 23.098 36.567 47.624 64.92 90.149 72.004 8.077.857 28.777 1.696 35.441-1.414 4.387-2.131-1.142-33.594 14.03-36.719 6.664-1.271 32.594 32.893 42.373 36.719 5.968 2.408 19.003 3.398 32.326 2.828 14.46-.42 30.894 1.424 32.453-8.498 3.55-21.688-43.787-50.047-45.069-63.365-1.136-9.638 17.297-27.354 26.646-40.965 11.618-16.444 24.387-36.285 17.152-42.525z" fill="#fff"/></svg>